<svg id="Layer_1" data-name="Layer 1" xmlns="http://www.w3.org/2000/svg" viewBox="0 0 2192.68 1954.16"><defs><style>.cls-1{fill:#de854b;}.cls-2{fill:#9864cc;}.cls-3{fill:#7946ac;}.cls-4{fill:#62bdf3;}.cls-5{fill:#d1eaf2;}.cls-6{fill:#3b77be;}.cls-7{fill:#3797db;}.cls-8{fill:#45258f;}.cls-9{fill:#efac7f;}.cls-10{fill:#5e2e0d;}.cls-11{fill:#d19369;}.cls-12{fill:#d17442;}.cls-13{fill:#7772d6;}.cls-14{fill:#fff;}</style></defs><title>opa</title><polygon class="cls-1" points="698.47 372.64 677.45 379.09 663.34 346.42 631.44 352.06 616.88 329.33 605.37 336.7 624.85 367.1 655.08 361.75 669.76 395.74 701.39 386.04 698.47 372.64"/><polygon class="cls-1" points="2046.49 1547.9 2025.47 1554.36 2011.36 1521.68 1979.46 1527.32 1964.9 1504.6 1953.39 1511.97 1972.87 1542.36 2003.1 1537.02 2017.78 1571.01 2049.41 1561.3 2046.49 1547.9"/><path class="cls-2" d="M593.81,1967.32s-112.17-380.19-121.17-464,53.73-57.88,53.73-57.88-52.77-159.8-14.61-197.73,72.57,32.77,72.57,32.77,11.55-194,52.23-194.06c75.77-.13,74.28,211.56,74.28,211.56s19.33-82.88,59.91-60.16c61.18,34.27-26.56,200.36-26.56,200.36s78,.06,105.35,39.37C898.68,1548,593.81,1967.32,593.81,1967.32Z" transform="translate(-24.86 -32.55)"/><path class="cls-2" d="M630.48,1917s-323.36-54.08-393.7-111.37-.72-83.14-.72-83.14S73.62,1639.22,75.5,1582.6s82.58-27.84,82.58-27.84S21.21,1398.69,53.61,1369c60.36-55.21,218.59,107,218.59,107s-47-77.16,2.5-89.37c74.62-18.41,129.7,171.84,129.7,171.84s-14-75.13,37.46-65.12C534.18,1511.38,630.48,1917,630.48,1917Z" transform="translate(-24.86 -32.55)"/><path class="cls-3" d="M441.86,1493.43c-51.58-9.33-37.46,65.12-37.46,65.12s-55.08-190.25-129.7-171.84c-49.48,12.21-2.5,89.37-2.5,89.37S114,1313.83,53.61,1369l575.78,548.05C619.14,1864.74,528.34,1509.06,441.86,1493.43Z" transform="translate(-24.86 -32.55)"/><path class="cls-2" d="M722.48,1961.6s-170.29-173.18-256-191.22-70.34,43-70.34,43S226,1664.57,186.52,1700.62s3.22,70.86,3.22,70.86-141.72-25.11-162,21.39c-31.18,71.47,201.91,110.37,201.91,110.37s-97.68,6.76-75,51.57C188.78,2022.39,722.48,1961.6,722.48,1961.6Z" transform="translate(-24.86 -32.55)"/><path class="cls-3" d="M27.73,1792.87c20.29-46.5,162-21.39,162-21.39s-42.65-34.81-3.22-70.86,204.28,92.51,204.28,92.51-38.87-74.3,46.89-56.27S722.48,1961.6,722.48,1961.6Z" transform="translate(-24.86 -32.55)"/><path class="cls-4" d="M993.59,175.5c-57.32,9.43-74.35,84.67-26.69,118.32a43.7,43.7,0,0,1,17,25.3l8.68,35a19.06,19.06,0,0,0,21.59,14.22l21.72-3.58a19,19,0,0,0,15.89-20.39c-3-36.13-6.74-49.23,5-65.35C1091.14,231.89,1050.92,166.07,993.59,175.5Z" transform="translate(-24.86 -32.55)"/><path class="cls-5" d="M999.44,328.45c-3.73-31-9-63.63-10.75-72.9-32.86,1.81-20.37-32.82-5.21-18.74,4.32,4,6.36,9.45,7.71,15.42a84.91,84.91,0,0,0,31.3-9.12c-.52-7.64-1.27-13.42.86-18.31,3.22-7.37,12.57-9.38,16.37-2.19a11.5,11.5,0,0,1,.65,9c-2.2,6.1-8.84,10.14-14.62,13.29,1.73,24.61,4.12,49.41,7.14,73.83l-3.1.39c-3-24-5.34-48.42-7.06-72.64a88,88,0,0,1-30.91,8.82c2.25,11.85,7.22,43.7,10.72,72.76Zm-26.36-80.2c2.92,3.14,7.81,4.53,14.95,4.2-1.23-5.26-3.06-10-6.68-13.35C973.19,231.52,968.19,243,973.08,248.25Zm53.13-22.2c-1.79,4.11-1.11,9.37-.7,15.42,4.7-2.68,10.15-6,11.92-10.91,1.23-3.43-.16-8.28-3.65-9.18C1033.4,221.29,1027.47,223.17,1026.21,226.05Z" transform="translate(-24.86 -32.55)"/><path class="cls-2" d="M983.65,318.26c.08.29.18.57.25.86l8.68,35a19.06,19.06,0,0,0,21.59,14.22l21.72-3.58a19,19,0,0,0,15.89-20.39c-1.34-16.07-2.81-27.58-3-36.83Z" transform="translate(-24.86 -32.55)"/><path class="cls-4" d="M951.1,149.37,934,118.08a6.25,6.25,0,0,1,11-6l17.14,31.29a6.25,6.25,0,1,1-11,6Z" transform="translate(-24.86 -32.55)"/><path class="cls-4" d="M913.63,225.05l-37.36-3.27a6.25,6.25,0,1,1,1.09-12.45l37.36,3.27a6.25,6.25,0,1,1-1.09,12.45Z" transform="translate(-24.86 -32.55)"/><path class="cls-4" d="M876.59,339.6a6.24,6.24,0,0,1,0-8.84,203.34,203.34,0,0,1,30-24.49,6.25,6.25,0,0,1,7,10.4,191.23,191.23,0,0,0-28.18,23A6.24,6.24,0,0,1,876.59,339.6Z" transform="translate(-24.86 -32.55)"/><path class="cls-4" d="M1043.42,147.68A6.26,6.26,0,0,1,1039,140a238,238,0,0,0,7.71-48.54,6.25,6.25,0,1,1,12.48.67,251,251,0,0,1-8.11,51.1A6.25,6.25,0,0,1,1043.42,147.68Z" transform="translate(-24.86 -32.55)"/><path class="cls-4" d="M1081.89,195.71a6.26,6.26,0,0,1,4.18-7.79l38.85-11.71a6.25,6.25,0,0,1,3.61,12l-38.85,11.71A6.26,6.26,0,0,1,1081.89,195.71Z" transform="translate(-24.86 -32.55)"/><path class="cls-4" d="M1145.7,299.06a6.27,6.27,0,0,1-1.7-.23,196.29,196.29,0,0,1-38.89-15.59,6.25,6.25,0,1,1,5.87-11,183.67,183.67,0,0,0,36.41,14.59,6.25,6.25,0,0,1-1.69,12.27Z" transform="translate(-24.86 -32.55)"/><path class="cls-2" d="M1714.64,575.43,1695,529.09,1645.76,519a6.92,6.92,0,0,1-3.14-12l38-33-5.6-50a6.91,6.91,0,0,1,10.44-6.69l43.09,26,45.82-20.78a6.93,6.93,0,0,1,9.6,7.87l-11.39,49,33.92,37.16A6.92,6.92,0,0,1,1802,528.1l-50.13,4.31L1727,576.16A6.92,6.92,0,0,1,1714.64,575.43Z" transform="translate(-24.86 -32.55)"/><polygon class="cls-1" points="2001.74 383.88 1993.69 416.32 1940.06 409.12 1922.43 455.1 1881.41 456.28 1882.01 477.04 1936.87 475.47 1953.57 431.9 2009.36 439.38 2021.48 390.56 2001.74 383.88"/><path class="cls-6" d="M1548.79,1971.57H606.05c-36,0-65.2-30.27-65.2-67.62v-40.21c0-37.35,29.19-67.63,65.2-67.63h942.74c-43.13,48.89-43.88,123.61-1.74,173.42Z" transform="translate(-24.86 -32.55)"/><path class="cls-5" d="M1534.23,1816.22H1011.34c-36,0-65.2,30.27-65.2,67.62h0c0,37.35,29.19,67.63,65.2,67.63h522.93A134.17,134.17,0,0,1,1534.23,1816.22Z" transform="translate(-24.86 -32.55)"/><path class="cls-7" d="M1217.59,1674.26c1.37-2.57-.72-5.55-3.89-5.55H714.87c-39.1,0-70.8,28.53-70.8,63.71h0c0,35.19,31.7,63.72,70.8,63.72h499c3.19,0,5.28-3,3.89-5.58h0A122.06,122.06,0,0,1,1217.59,1674.26Z" transform="translate(-24.86 -32.55)"/><path class="cls-5" d="M1214.44,1680.57H967.22c-45.89,0-83.09,23.9-83.09,53.39s37.2,53.39,83.09,53.39h248.85A121.82,121.82,0,0,1,1214.44,1680.57Z" transform="translate(-24.86 -32.55)"/><path class="cls-1" d="M1150.59,1705.88H1118.4c-6.93,0-12.54,2.32-12.54,5.19v.47h44.73Z" transform="translate(-24.86 -32.55)"/><path class="cls-1" d="M1178.06,1718.9c0-7.19-8.41-13-18.78-13H1118c7.86,0,14.24,4.42,14.24,9.87l-.19,139.6,22.83-17.95,23.27,17.95Z" transform="translate(-24.86 -32.55)"/><path class="cls-5" d="M1125.88,1664.11H835.63c-25.74,0-46.6-24.76-46.6-55.31h0c0-30.55,20.86-55.31,46.6-55.31h290.25c-22.19,30.66-23.06,75.64-2.08,107.48Z" transform="translate(-24.86 -32.55)"/><path class="cls-8" d="M789.05,1608.8h0c0-30.55,21.36-55.31,47.71-55.31h294.65a2.7,2.7,0,0,0,2.47-2.89h0a2.68,2.68,0,0,0-2.47-2.84H664c-29.07,0-52.64,27.33-52.64,61h0c0,33.72,23.57,61,52.64,61h467.43a2.69,2.69,0,0,0,2.47-2.84h0a2.7,2.7,0,0,0-2.47-2.9H836.76C810.41,1664.11,789.05,1639.35,789.05,1608.8Z" transform="translate(-24.86 -32.55)"/><path class="cls-7" d="M1075.19,1580.67H1043c-6.93,0-12.54,2.28-12.54,5.09v.46h44.73Z" transform="translate(-24.86 -32.55)"/><path class="cls-4" d="M1102.66,1593.44c0-7-8.41-12.77-18.78-12.77h-41.32c7.87,0,14.24,4.34,14.24,9.69l-.19,136.89,22.83-17.6,23.27,17.6Z" transform="translate(-24.86 -32.55)"/><path class="cls-6" d="M1588.33,735.07l42.85-11.28-29,387.35-51.4,1.72,25.93-363.72A15.71,15.71,0,0,1,1588.33,735.07Z" transform="translate(-24.86 -32.55)"/><path class="cls-7" d="M1606,1122.19a13.8,13.8,0,0,1-2.94,0c-8.51-1-14.81-9.47-14.07-18.91L1617.49,739c.74-9.44,8.23-16.28,16.75-15.27s14.81,9.47,14.07,18.91l-28.52,364.22C1619.13,1115.22,1613.21,1121.52,1606,1122.19Z" transform="translate(-24.86 -32.55)"/><path class="cls-7" d="M1211.62,1141.59c0,.27,0,.53.06.8h0c1.34,14.82,12.82,25.9,25.64,24.75l361.86-32.38c12.82-1.15,22.13-14.09,20.79-28.91-.06-.63-.14-1.24-.24-1.86Z" transform="translate(-24.86 -32.55)"/><path class="cls-9" d="M1463.6,1532.81c-23.69,13.14-96.12-9.9-96.12-12-1,19.8-81.1,213.54-81.1,213.54l.06,59.61s165,7.86,162.6-6.71-11.24-5.1-44.15-32.63c-2.92-2.45-49.13-13.17-36.63-40.52C1393.44,1659,1446.93,1567.2,1463.6,1532.81Z" transform="translate(-24.86 -32.55)"/><path class="cls-8" d="M1281,1796.11l180.58.05c6.52-.67,8-6,5.74-9.19-4.74-6.64-39.35-22.29-62.61-32.67-40.52,4.73-111.76-10.85-118.28-20.09C1269.3,1757.19,1277.38,1795.36,1281,1796.11Z" transform="translate(-24.86 -32.55)"/><path class="cls-3" d="M1241.4,1393.71c-2.44-7.33,155.48-74.35,162.55-66.69,12.5,13.55-85.44,267.79-85.44,267.79L1431,1629.19s117-293.73,112.11-347.45S1479.66,1167,1352.67,1206,1241.4,1393.71,1241.4,1393.71Z" transform="translate(-24.86 -32.55)"/><path class="cls-9" d="M1568.38,1566.23c-26.66-4.85-61.21-6.24-88.87-6.71,3.25,24.62,19.09,150.91,16.19,158.67-11.72,31.44-37.73,46.15-37.73,46.15S1580.6,1875,1588,1862.2s-5.46-11.07-13.47-53.22c-.71-3.75-18.44-62.59-19.54-94.33C1552.89,1654.12,1567.46,1599.84,1568.38,1566.23Z" transform="translate(-24.86 -32.55)"/><path class="cls-2" d="M1529,1153.08c-17.1-9.13-61.51-9.44-110.35-6.28a1120.39,1120.39,0,0,0-279.74,54.91l-60.61,20.07.2-62.14s-192.79-32.25-199.5,15.53c-10.1,72,2.43,218,66.67,250.64,199.52,101.28,479.12-161.34,480.14-127,1.36,46.14,40.26,217.86,50.2,293,27.66.48,75.19.46,95.8-4.27C1575.85,1440.32,1577.73,1179.06,1529,1153.08Z" transform="translate(-24.86 -32.55)"/><path class="cls-8" d="M1454.24,1766.93,1592.08,1877c5.47,3.62,10,.49,10.26-3.47.55-8.14-16.3-42.18-27.72-65-34.35-22-79.64-79.46-78.83-90.73C1481.26,1730.16,1451.9,1764,1454.24,1766.93Z" transform="translate(-24.86 -32.55)"/><path class="cls-10" d="M1142.23,552.49c-4.63-42.33-9.51-84.81-44.6-115.84-28.39-25.1-64.5-29.36-100.2-15.92-101.15,38.06-49,127.89-178,218.46-40.07,28.14-84.24,47.41-114.42,85.3-42.23,53-26.29,116.85,12.21,159.45C901.38,1087.77,1107,812.5,1121.76,746.42,1132.74,697.26,1145.2,579.74,1142.23,552.49Z" transform="translate(-24.86 -32.55)"/><path class="cls-1" d="M1104.83,790.52a562.2,562.2,0,0,0-30.55-49.75C1058.68,713,1018.36,699,1018.36,699s-13.48.28-29,1c-.95,2.57-1.93,4.4-2.92,5.14-5.82,4.36-39.16-1.27-60.71,13.35-72.2,61.9-52.23,361.89-46.55,456.64l219.89,2.08s-27.72-203.87,17-256.25C1147.17,884.52,1127.14,831.66,1104.83,790.52Z" transform="translate(-24.86 -32.55)"/><path class="cls-9" d="M1005.71,597.51s-12.09,86.33-20.53,107.3,46.42,65.84,92.07,79.46-14-46.34-12.06-68.76,10.19-128.6,10.19-128.6Z" transform="translate(-24.86 -32.55)"/><path class="cls-11" d="M1073.07,617.36c1.33-17.57,2.31-30.45,2.31-30.45l-69.67,10.6S1004,607.65,1002,622C1030.25,638.38,1055.65,633.21,1073.07,617.36Z" transform="translate(-24.86 -32.55)"/><path class="cls-9" d="M1027.56,439.84S1000.1,446,983.14,471.9,954.55,574,1010.4,609.51s99.27-14.74,100-63.8S1100.6,431.19,1027.56,439.84Z" transform="translate(-24.86 -32.55)"/><path class="cls-9" d="M1123.17,530.36c-4.77,11.84-14.22,19.18-21.11,16.41s-8.62-14.62-3.86-26.46,14.22-19.18,21.11-16.41S1127.93,518.52,1123.17,530.36Z" transform="translate(-24.86 -32.55)"/><path class="cls-10" d="M1035.8,438.23s-35,78.53-65.77,85.54-30.31,46.52-30.31,46.52.69-91.24,29.51-112.17S1035.8,438.23,1035.8,438.23Z" transform="translate(-24.86 -32.55)"/><path class="cls-9" d="M982.25,540.09c4,12.75.34,25.31-8.27,28S955.09,562.75,951,550s-.35-25.31,8.27-28S978.2,527.34,982.25,540.09Z" transform="translate(-24.86 -32.55)"/><path class="cls-9" d="M1375.57,1107c-13.2-4.77-32.84-5.36-32.51-7.11,1.33-7,59.61,15.56,51.74,5.28-4.39-5.73-48-26-58.61-22.67-10.29,3.25-77.84,22.21-77.84,22.21l-184.61-43.27s-46.6-105.89-51.15-196.87c-38.52,5.21-64.75,14.73-98.22,33.31,16.14,87,55.38,228,98.76,254.49,18.25,11.14,236.13-13.32,236.13-13.32s48-3.39,55.87-6.41c5.95-2.29,21.27-10.92,29.6-13.28,19-5.36,52.7,8.11,52.8,4.4C1397.61,1121,1389.05,1111.85,1375.57,1107Z" transform="translate(-24.86 -32.55)"/><path class="cls-12" d="M1023.72,767.35c-1.78-28-12.38-55-42.17-63.72-18.46-5.4-39.17-.24-53.92,11.81-17.55,14.34-22.45,37.33-22.37,59.09.19,49.42,3.55,100.66,12.58,149.31,33.48-18.58,72.56-29.75,111.08-35C1028.9,888.59,1026.07,804.35,1023.72,767.35Z" transform="translate(-24.86 -32.55)"/><path class="cls-7" d="M451.72,820.17,165.51,766.88A10.59,10.59,0,0,1,157,754.53L192.89,562a10.59,10.59,0,0,1,12.35-8.47l286.21,53.29a10.59,10.59,0,0,1,8.47,12.35L464.07,811.7A10.59,10.59,0,0,1,451.72,820.17Z" transform="translate(-24.86 -32.55)"/><path class="cls-7" d="M315.48,600.06l-87.12-16.23a10.58,10.58,0,0,1-8.47-12.34l5.45-29.3a10.59,10.59,0,0,1,12.35-8.47l87.12,16.22a10.59,10.59,0,0,1,8.47,12.35l-5.45,29.3A10.59,10.59,0,0,1,315.48,600.06Z" transform="translate(-24.86 -32.55)"/><path class="cls-4" d="M464.75,812.81a10.58,10.58,0,0,1-12.12,7.53L164.54,766.7a10.58,10.58,0,0,1-8.6-11.33L171,582.77a10.59,10.59,0,0,1,12.49-9.48l320,59.59a10.57,10.57,0,0,1,8.25,13.28Z" transform="translate(-24.86 -32.55)"/><polygon class="cls-1" points="1752.66 149.62 1703.65 163 1693.09 103.61 1709.13 100.76 1716.56 142.59 1748.37 133.91 1752.66 149.62"/><path class="cls-13" d="M216.08,997.85c12.27-1,31.12,4.41,39.56,10.13,1.27,1.19,11,5.06,21.09,21.79l-2.27,1.58c-10.66-11.16-17.83-13.66-26.37-16.22-14.07-3.61-28.25-.91-29.41-.29Z" transform="translate(-24.86 -32.55)"/><path class="cls-1" d="M275.59,1030.56s-74.78,12.48-67.81,70.9,85.87,103.87,156.28,67.74C458.79,1120.59,421.37,997,354,987.46S275.59,1030.56,275.59,1030.56Z" transform="translate(-24.86 -32.55)"/><path class="cls-12" d="M307.32,1004.84s19.51-20,62.26-1.81,45.84,103.2,7.71,98.26S276.83,1017.1,307.32,1004.84Z" transform="translate(-24.86 -32.55)"/><path class="cls-2" d="M821.77,228.71,514.2,338.43a19,19,0,0,1-24.35-11.55L433.08,167.74a19.06,19.06,0,0,1,11.54-24.36L752.2,33.66a19.07,19.07,0,0,1,24.35,11.55l56.77,159.15A19,19,0,0,1,821.77,228.71Z" transform="translate(-24.86 -32.55)"/><path class="cls-14" d="M617.91,187.81A61,61,0,1,1,540,150.88,61,61,0,0,1,617.91,187.81Z" transform="translate(-24.86 -32.55)"/><path class="cls-13" d="M569.23,179.27a18,18,0,1,1-23-10.89A18,18,0,0,1,569.23,179.27Z" transform="translate(-24.86 -32.55)"/><path class="cls-13" d="M552.29,212.11h29a14.2,14.2,0,0,1,14.2,14.2v13.54a0,0,0,0,1,0,0H538.09a0,0,0,0,1,0,0V226.31A14.2,14.2,0,0,1,552.29,212.11Z" transform="translate(-67.83 171.02) rotate(-19.63)"/><path class="cls-14" d="M625.49,154.54a7.78,7.78,0,0,1-2.61-15.1l134.45-48a7.77,7.77,0,0,1,5.22,14.64l-134.45,48A7.76,7.76,0,0,1,625.49,154.54Z" transform="translate(-24.86 -32.55)"/><path class="cls-14" d="M661.78,188.05A7.77,7.77,0,0,1,659.17,173l105-37.46a7.77,7.77,0,1,1,5.23,14.64l-105,37.46A7.75,7.75,0,0,1,661.78,188.05Z" transform="translate(-24.86 -32.55)"/><path class="cls-1" d="M1299.67,1429.13H557a41.76,41.76,0,0,0-41.76,41.76V1506A41.76,41.76,0,0,0,557,1547.77h742.67l-.39-.4A85,85,0,0,1,1299.67,1429.13Z" transform="translate(-24.86 -32.55)"/><path class="cls-5" d="M1286.52,1446.7h-397a41.75,41.75,0,0,0-41.75,41.75h0a41.75,41.75,0,0,0,41.75,41.76h397A85.16,85.16,0,0,1,1286.52,1446.7Z" transform="translate(-24.86 -32.55)"/><path class="cls-5" d="M1907.5,1432.55l-56.3-141.24a13.85,13.85,0,0,1,7.74-18l202.58-80.75a13.85,13.85,0,0,1,18,7.74l56.3,141.24a13.87,13.87,0,0,1-7.74,18l-202.58,80.74A13.85,13.85,0,0,1,1907.5,1432.55Z" transform="translate(-24.86 -32.55)"/><path class="cls-7" d="M2098.6,1350.88,2048,1224a4,4,0,0,1,2.22-5.16h0a4,4,0,0,1,5.16,2.22L2106,1347.94a4,4,0,0,1-2.22,5.16h0A4,4,0,0,1,2098.6,1350.88Z" transform="translate(-24.86 -32.55)"/><path class="cls-7" d="M2074.49,1334.16,2033,1230a4,4,0,0,1,2.22-5.16h0a4,4,0,0,1,5.16,2.22l41.54,104.2a4,4,0,0,1-2.22,5.16h0A4,4,0,0,1,2074.49,1334.16Z" transform="translate(-24.86 -32.55)"/><path class="cls-7" d="M2068.5,1362.88,2017.91,1236a4,4,0,0,1,2.22-5.16h0a4,4,0,0,1,5.17,2.22l50.58,126.92a4,4,0,0,1-2.22,5.16h0A4,4,0,0,1,2068.5,1362.88Z" transform="translate(-24.86 -32.55)"/><path class="cls-7" d="M2041.91,1339.92l-39.05-98a4,4,0,0,1,2.22-5.16h0a4,4,0,0,1,5.17,2.21l39,98a4,4,0,0,1-2.22,5.17h0A4,4,0,0,1,2041.91,1339.92Z" transform="translate(-24.86 -32.55)"/><path class="cls-7" d="M2097.24,1210.43l-1-2.56a1.78,1.78,0,0,0-2.28-1.06l-19.23,7.66a1.77,1.77,0,0,0-.92,2.34l1,2.56a1.77,1.77,0,0,0,2.28,1.06l19.22-7.66A1.78,1.78,0,0,0,2097.24,1210.43Z" transform="translate(-24.86 -32.55)"/><path class="cls-7" d="M2101.59,1221.36l-1-2.55a1.77,1.77,0,0,0-2.28-1.07l-19.22,7.67a1.77,1.77,0,0,0-.92,2.34l1,2.55a1.79,1.79,0,0,0,2.28,1.07l19.23-7.67A1.77,1.77,0,0,0,2101.59,1221.36Z" transform="translate(-24.86 -32.55)"/><path class="cls-7" d="M2106,1232.29l-1-2.55a1.78,1.78,0,0,0-2.28-1.07l-19.23,7.67a1.79,1.79,0,0,0-.92,2.34l1,2.55a1.79,1.79,0,0,0,2.28,1.07l19.23-7.67A1.78,1.78,0,0,0,2106,1232.29Z" transform="translate(-24.86 -32.55)"/><path class="cls-7" d="M2110.31,1243.23l-1-2.56a1.79,1.79,0,0,0-2.28-1.07l-19.23,7.67a1.78,1.78,0,0,0-.92,2.34l1,2.56a1.78,1.78,0,0,0,2.28,1.06l19.22-7.66A1.79,1.79,0,0,0,2110.31,1243.23Z" transform="translate(-24.86 -32.55)"/><path class="cls-7" d="M2114.66,1254.16l-1-2.56a1.78,1.78,0,0,0-2.28-1.06l-19.23,7.66a1.78,1.78,0,0,0-.93,2.34l1,2.56a1.78,1.78,0,0,0,2.28,1.06l19.23-7.66A1.77,1.77,0,0,0,2114.66,1254.16Z" transform="translate(-24.86 -32.55)"/><path class="cls-7" d="M2119,1265.09l-1-2.56a1.77,1.77,0,0,0-2.28-1.06l-19.22,7.66a1.78,1.78,0,0,0-.93,2.34l1,2.56a1.78,1.78,0,0,0,2.28,1.06l19.23-7.66A1.78,1.78,0,0,0,2119,1265.09Z" transform="translate(-24.86 -32.55)"/><path class="cls-7" d="M2123.38,1276l-1-2.56a1.78,1.78,0,0,0-2.28-1.06l-19.23,7.66a1.78,1.78,0,0,0-.92,2.34l1,2.56a1.77,1.77,0,0,0,2.28,1.06l19.23-7.66A1.79,1.79,0,0,0,2123.38,1276Z" transform="translate(-24.86 -32.55)"/><path class="cls-7" d="M2127.73,1287l-1-2.56a1.78,1.78,0,0,0-2.28-1.06l-19.23,7.66a1.77,1.77,0,0,0-.92,2.34l1,2.56a1.78,1.78,0,0,0,2.28,1.07l19.22-7.67A1.77,1.77,0,0,0,2127.73,1287Z" transform="translate(-24.86 -32.55)"/><path class="cls-7" d="M2132.09,1297.88l-1-2.55a1.77,1.77,0,0,0-2.28-1.07l-19.22,7.66a1.8,1.8,0,0,0-.93,2.35l1,2.55a1.79,1.79,0,0,0,2.28,1.07l19.23-7.67A1.77,1.77,0,0,0,2132.09,1297.88Z" transform="translate(-24.86 -32.55)"/><path class="cls-7" d="M2136.45,1308.81l-1-2.55a1.78,1.78,0,0,0-2.28-1.07l-19.22,7.67a1.78,1.78,0,0,0-.93,2.34l1,2.55a1.79,1.79,0,0,0,2.28,1.07l19.23-7.66A1.8,1.8,0,0,0,2136.45,1308.81Z" transform="translate(-24.86 -32.55)"/><path class="cls-7" d="M2140.81,1319.75l-1-2.56a1.79,1.79,0,0,0-2.28-1.07l-19.23,7.67a1.78,1.78,0,0,0-.92,2.34l1,2.55a1.77,1.77,0,0,0,2.28,1.07l19.22-7.66A1.79,1.79,0,0,0,2140.81,1319.75Z" transform="translate(-24.86 -32.55)"/><path class="cls-7" d="M2145.16,1330.68l-1-2.56a1.78,1.78,0,0,0-2.29-1.06l-19.22,7.66a1.77,1.77,0,0,0-.92,2.34l1,2.56a1.78,1.78,0,0,0,2.28,1.06l19.23-7.66A1.77,1.77,0,0,0,2145.16,1330.68Z" transform="translate(-24.86 -32.55)"/><path class="cls-7" d="M2198.28,1319.42l-80.4,114.49a3.3,3.3,0,0,0-.42.84l-8.19,25.15a3.15,3.15,0,0,0,4.89,3.49l21.52-16.22a3.23,3.23,0,0,0,.68-.7L2217,1331.69a3.15,3.15,0,0,0-.89-4.47l-13.53-8.64A3.14,3.14,0,0,0,2198.28,1319.42Z" transform="translate(-24.86 -32.55)"/><path class="cls-5" d="M2136.27,1446.59l-.19.28-20.77,15.65-5.66-3.79,7.77-23.84C2123.5,1438.22,2130.79,1441.63,2136.27,1446.59Z" transform="translate(-24.86 -32.55)"/><path class="cls-6" d="M1383.77,80c11.57,9.23,31.7,39,57.39,59.82,15,12.21,26.6,9.1,45.78,11.42,91,11,66.34,29.6,77.25,31.43-3.1,7.13-31.45,67.4-36.75,79.58-4.88,11.24-13.33,16.26-25.57,14.57-18.82-2.6-37.81-4.54-56.33-8.55-47.5-10.3-73.93-34.06-108-62.91-9-7.65-11.26-17.2-6.58-28C1352.79,127,1381.4,84.67,1383.77,80Z" transform="translate(-24.86 -32.55)"/><path class="cls-7" d="M1574.05,255.21c-.41,19.83,1.11,23.81-7.4,20.8a119.39,119.39,0,0,1-14.94-6.67c-3.42-1.76-3.55-4.09-.77-6.88,4-4,8.19-8,12.23-11.94a17.56,17.56,0,0,1,7.7-21.09c1.49-.87.4,1,13.08-28.19-41.91-5.17-71.48-8.64-122.61-14.93a68.71,68.71,0,0,1-36.4-15.84q-54.78-45.83-109.53-91.7c-5-4.15-5.58-10.22-1.65-14.9,3-3.58,7-3.75,11.28-3.22,11.67,1.47,126.07,15.68,137.69,17a75.2,75.2,0,0,1,40.5,17.41q53.82,45.06,107.77,90c4.93,4.11,6.26,7.89,4.53,12.47-1.9,5-6,7.42-12.33,6.07-4.54-1-6.54.39-8.1,4.58-7,19-12,23.17-10.26,30.09C1586.15,243.63,1579.79,252.88,1574.05,255.21Z" transform="translate(-24.86 -32.55)"/><path class="cls-7" d="M1763.85,1602.37l20.85,19.88a554.24,554.24,0,0,1,118.64,164.39l3.19,6.77s54.6,4.82,62.23-44.54h0a824.83,824.83,0,0,1-119.88-176.06l-9.87-23.08Z" transform="translate(-24.86 -32.55)"/><path class="cls-6" d="M1839,1549.66c2.68,3.84-12,18.69-32.71,33.16s-39.82,23.25-42.5,19.41,12.06-18.86,32.8-33.33S1836.28,1545.82,1839,1549.66Z" transform="translate(-24.86 -32.55)"/><path class="cls-6" d="M1839.05,1549.8l-.07-.07s-41.56,35.17-58.69,38.76l5.29,7.21a220.16,220.16,0,0,0,20.67-12.88C1826.76,1568.51,1841.3,1553.85,1839.05,1549.8Z" transform="translate(-24.86 -32.55)"/><path class="cls-1" d="M1894.57,1651.94c.08,6.06-2.24,32.24-45.79,43.16q4.31,5.85,8.45,11.81c27.56-8.15,40-22.3,45.53-33.07.88-1.7,1.94-4,2.65-5.76Q1899.91,1660.07,1894.57,1651.94Z" transform="translate(-24.86 -32.55)"/><polygon class="cls-1" points="1827.83 1654.81 1763.74 1652.52 1778.93 1665.41 1769.85 1681.88 1830.51 1666.41 1827.83 1654.81"/><polygon class="cls-1" points="1833.67 1669.72 1810.9 1709.38 1826.92 1703.29 1833.08 1715.88 1843.79 1674.16 1833.67 1669.72"/><path class="cls-1" d="M1867.23,1713c-11.26.8-21-8-21.87-19.55s7.64-21.64,18.89-22.44,21,8,21.87,19.55S1878.48,1712.23,1867.23,1713Z" transform="translate(-24.86 -32.55)"/><path class="cls-4" d="M2003.27,813l-135-120.44c-8.77-7.83-5.12-23.93,7-30.78l107.72-61c6.89-3.91,14.66-3.54,19.66.92l135,120.43c8.77,7.83,5.11,23.93-7,30.79l-107.71,61C2016,817.82,2008.26,817.46,2003.27,813Z" transform="translate(-24.86 -32.55)"/><path class="cls-14" d="M1996.87,717.19l-11.25-92.53a8.31,8.31,0,0,1,5.76-8.46c3.62-1.13,6.9.84,7.33,4.38l10.35,85.15,102.35,24.75c3.33.8,4.87,4.4,3.43,8s-5.32,5.92-8.67,5.11Z" transform="translate(-24.86 -32.55)"/><polygon class="cls-4" points="209.56 260.8 223.52 288.4 255.03 287.38 268.48 319.42 301.72 307.98 318.53 343.55 350.43 336.79 372.19 368.36 360.24 376.6 343.97 352.99 310.31 360.13 294.15 325.94 260.36 337.57 245.52 302.21 214.74 303.2 201.81 277.63 181.73 282.51 178.3 268.4 209.56 260.8"/><polygon class="cls-1" points="1897.46 966.79 1926.11 978.43 1949.2 956.96 1980.39 972.28 1997.94 941.82 2033.97 957.6 2053.59 931.54 2090.74 941.05 2087.14 955.11 2059.36 948 2038.66 975.5 2004.02 960.33 1986.19 991.3 1951.77 974.39 1929.22 995.36 1902.66 984.57 1890.74 1001.44 1878.88 993.06 1897.46 966.79"/></svg>